HIERARCHY
ROOT Hips
{
    OFFSET 0.0 0.0 0.0
    CHANNELS 6 Xposition Yposition Zposition Zrotation Xrotation Yrotation
    JOINT LeftHipJoint
    {
        OFFSET 0.1 0.0 0.0
        CHANNELS 3 Zrotation Xrotation Yrotation
        JOINT LeftUpLeg
        {
            OFFSET 124.95685740802028 0.0 0.0
            CHANNELS 3 Zrotation Xrotation Yrotation
            JOINT LeftLeg
            {
                OFFSET 0.0 0.0 -409.3811541076206
                CHANNELS 3 Zrotation Xrotation Yrotation
                JOINT LeftFoot
                {
                    OFFSET 0.0 0.0 -395.9674685028374
                    CHANNELS 3 Zrotation Xrotation Yrotation
                    End Site
                    {
                        OFFSET 0.0 -0.1 0.0
                    }
                }
            }
        }
    }
    JOINT LowerBack
    {
        OFFSET 0.0 0.0 0.1
        CHANNELS 3 Zrotation Xrotation Yrotation
        JOINT Spine
        {
            OFFSET 0.0 0.0 220.04839279128865
            CHANNELS 3 Zrotation Xrotation Yrotation
            JOINT Spine1
            {
                OFFSET 0.0 0.0 255.30741277496767
                CHANNELS 3 Zrotation Xrotation Yrotation
                JOINT LeftShoulder
                {
                    OFFSET 0.1 0.0 0.0
                    CHANNELS 3 Zrotation Xrotation Yrotation
                    JOINT LeftArm
                    {
                        OFFSET 148.03067493050898 0.0 0.0
                        CHANNELS 3 Zrotation Xrotation Yrotation
                        JOINT LeftForeArm
                        {
                            OFFSET 259.9290754203005 0.0 0.0
                            CHANNELS 3 Zrotation Xrotation Yrotation
                            JOINT LeftHand
                            {
                                OFFSET 239.92765079030897 0.0 0.0
                                CHANNELS 3 Zrotation Xrotation Yrotation
                                End Site
                                {
                                    OFFSET 0.1 0.0 0.0
                                }
                            }
                        }
                    }
                }
                JOINT Neck
                {
                    OFFSET 0.0 0.0 0.1
                    CHANNELS 3 Zrotation Xrotation Yrotation
                    JOINT Neck1
                    {
                        OFFSET 0.0 0.0 110.6976498490436
                        CHANNELS 3 Zrotation Xrotation Yrotation
                        End Site
                        {
                            OFFSET 0.0 0.0 119.45184782003939
                        }
                    }
                }
                JOINT RightShoulder
                {
                    OFFSET -0.1 0.0 0.0
                    CHANNELS 3 Zrotation Xrotation Yrotation
                    JOINT RightArm
                    {
                        OFFSET -148.03067493050898 0.0 0.0
                        CHANNELS 3 Zrotation Xrotation Yrotation
                        JOINT RightForeArm
                        {
                            OFFSET -259.9290754203005 0.0 0.0
                            CHANNELS 3 Zrotation Xrotation Yrotation
                            JOINT RightHand
                            {
                                OFFSET -239.92765079030897 0.0 0.0
                                CHANNELS 3 Zrotation Xrotation Yrotation
                                End Site
                                {
                                    OFFSET -0.1 0.0 0.0
                                }
                            }
                        }
                    }
                }
            }
        }
    }
    JOINT RightHipJoint
    {
        OFFSET -0.1 0.0 0.0
        CHANNELS 3 Zrotation Xrotation Yrotation
        JOINT RightUpLeg
        {
            OFFSET -124.95685740802028 0.0 0.0
            CHANNELS 3 Zrotation Xrotation Yrotation
            JOINT RightLeg
            {
                OFFSET 0.0 0.0 -409.3811541076206
                CHANNELS 3 Zrotation Xrotation Yrotation
                JOINT RightFoot
                {
                    OFFSET 0.0 0.0 -395.9674685028374
                    CHANNELS 3 Zrotation Xrotation Yrotation
                    End Site
                    {
                        OFFSET 0.0 -0.1 0.0
                    }
                }
            }
        }
    }
}
MOTION
Frames: 9
Frame Time: 0.03333333333333333
0.0 0.0 826.397924669964 25.467633641508627 -16.36965769564626 5.739553391933785 0.0 0.0 0.0 -0.024572162552226266 6.620278377630299 -1.4289853022383792 -0.7483250420893776 23.90239230771582 -3.7830427546642698 -3.1805546814635168e-15 2.2069531490250793e-32 -7.951386703658792e-16 0.0 0.0 0.0 -0.041282436814274945 9.144106487968246 0.24096999548118223 0.5101978541508319 9.40810530388542e-17 -1.1931387086071358e-15 0.0 0.0 1.987846675914698e-16 -91.06339052335544 16.874852671138235 45.59207335402451 -108.07035527627194 -1.0297080408590829e-14 7.471611898880108e-15 0.0 0.0 -7.951386703658792e-16 0.0 0.0 1.987846675914698e-16 -7.012738018558248 -10.43741112063964 -9.112451842253327 0.0 0.0 1.987846675914698e-16 76.37359795835062 -1.9736018909705109 -37.225255308484556 118.84575302615191 0.0 0.0 0.0 0.0 0.0 0.0 0.0 0.0 -0.0564803683999704 11.322277645593214 -5.248228650369645 -1.9817267767219173 19.72505919260476 4.817571015002161 0.0 0.0 -7.951386703658792e-16
0.0 0.0 826.397924669964 25.54901633537938 -16.303999771742163 5.785646143727589 2.2069531490250793e-32 3.1805546814635168e-15 -7.951386703658792e-16 -0.02272603487544133 6.613189183139663 -1.5494940489720272 -0.787650876191474 23.714773358329797 -3.668626720362962 0.0 0.0 0.0 2.2069531490250793e-32 3.1805546814635168e-15 -7.951386703658792e-16 -0.03864930604783518 9.128253965919658 0.22725125692007495 0.5054984263776664 7.960078309734442e-16 1.9527514488439562e-16 0.0 0.0 -1.987846675914698e-16 -90.99445566763669 16.82987411889111 45.67816049472389 -107.68846807352628 7.704092565859622e-15 -5.629414754011463e-15 0.0 0.0 7.951386703658792e-16 0.0 0.0 -1.987846675914698e-16 -7.085830744512724 -10.414641427212564 -9.166406351708401 0.0 0.0 -1.987846675914698e-16 76.03100295429996 -2.119092885156122 -37.281419192161486 118.71452302933353 1.6210756855137544e-15 -2.7364286403295096e-15 0.0 0.0 3.975693351829396e-16 2.2069531490250793e-32 3.1805546814635168e-15 -7.951386703658792e-16 -0.05329682410080791 11.331414601701235 -5.287089242901303 -1.983013341376979 19.661881011453936 4.747336542247968 0.0 0.0 0.0
0.0 0.0 826.397924669964 25.650572846860463 -16.214264811594813 5.852218081880116 0.0 3.1308585145656493e-15 0.0 -0.01854768161253969 6.412468681227793 -1.664574393611848 -0.8230105372074098 23.66672101942177 -3.5763035457465975 0.0 0.0 3.975693351829396e-16 0.0 3.1308585145656493e-15 0.0 -0.03378338176715261 9.121112464511457 0.19852414390686599 0.4531220335726205 9.93915567484773e-16 -3.930196903505186e-18 0.0 0.0 -1.987846675914698e-16 -90.90223221778352 16.795223730424507 45.653368452536505 -107.4574960217941 -1.8816439216518314e-15 -2.5642434037918885e-15 0.0 0.0 0.0 0.0 0.0 -1.987846675914698e-16 -7.331582242171219 -10.554252150156424 -9.207658494455785 0.0 0.0 -1.987846675914698e-16 75.62462139423359 -2.485710662015071 -37.20885910260693 118.6982469214025 -5.472396723773636e-15 -3.2429286801823967e-15 0.0 0.0 0.0 0.0 3.1308585145656493e-15 0.0 -0.046992385275932795 11.27700571360112 -5.381429318917195 -2.010574618935089 19.70358979076466 4.79276067050329 -6.896728590703373e-34 -1.987846675914698e-16 -3.975693351829396e-16
0.0 0.0 826.397924669964 25.69943811070931 -16.101421616879875 5.833562389760128 0.0 0.0 0.0 -0.02019054834811873 6.154665471203283 -1.6868700600984636 -0.844813410211482 23.701041798613517 -3.4552066075729746 0.0 0.0 -3.975693351829396e-16 0.0 0.0 0.0 -0.03760400064589224 9.104318455751713 0.19093935193483733 0.4499966860068814 -1.5887038432724274e-15 4.0381121219462857e-16 0.0 0.0 -1.987846675914698e-16 -90.9460299925819 16.777386754175712 45.53334916451667 -107.08439208799687 1.468049942890158e-14 -6.8918115647692495e-15 0.0 0.0 7.951386703658792e-16 0.0 0.0 -1.987846675914698e-16 -7.447088348020014 -10.532465607903163 -9.14284212414608 0.0 0.0 -1.987846675914698e-16 75.24084900711827 -2.7196955206048483 -37.073237901492455 118.73900375439976 8.714531896787898e-15 -2.2325676863428443e-15 0.0 0.0 3.975693351829396e-16 0.0 0.0 0.0 -0.05137736491334064 11.169117396779868 -5.297324609173729 -1.9991133362497324 19.795397539469082 4.755214640741981 -4.138037154422024e-33 -1.9878466759146977e-16 -2.385416011097637e-15
0.0 0.0 826.397924669964 25.73318327447704 -15.881746743855123 5.7561425644896955 0.0 0.0 0.0 -0.02691179135309711 5.92899837299183 -1.6097648659628063 -0.8397004709136808 23.608461977062653 -3.4457400933176934 3.1805546814635168e-15 1.5902773407317584e-15 1.1927080055488188e-15 0.0 0.0 0.0 -0.04903508407278709 9.038561650351493 0.2503677475221416 0.4370709284580425 -3.968082479365381e-16 2.0029961237304138e-16 0.0 0.0 1.987846675914698e-16 -90.90212585952054 16.75303987876546 45.389328775848924 -106.51538860460082 1.529212258899768e-14 -1.1415971166183308e-14 0.0 0.0 0.0 0.0 0.0 1.987846675914698e-16 -7.607600568879956 -10.568929621873309 -9.073253863756838 0.0 0.0 1.987846675914698e-16 74.91944332029139 -3.001324411109643 -36.98026178075907 118.64983531706416 -1.6226201596661792e-15 2.735513096152968e-15 0.0 0.0 -3.975693351829396e-16 0.0 0.0 0.0 -0.06452011917158783 10.922728185718414 -5.1882687394154905 -1.988666205288188 19.813974440743564 4.791750387878074 0.0 0.0 -3.975693351829396e-16
0.0 0.0 826.397924669964 25.76733968532555 -15.846987031136635 5.659955304666886 0.0 3.130858514565649e-15 0.0 -0.031991516117183545 5.833339300011587 -1.4841295047520677 -0.8053824341184507 23.517679864566315 -3.3981956026060556 0.0 0.0 0.0 0.0 3.130858514565649e-15 0.0 -0.05798585300924689 9.070260949400705 0.24953868109257596 0.41408705009452185 1.987833697236714e-16 -7.183249635750493e-19 0.0 0.0 -1.987846675914698e-16 -90.86557330282974 16.616125178970528 45.334586228281786 -105.76684420427614 0.0 -0.0 0.0 0.0 0.0 0.0 0.0 -1.987846675914698e-16 -7.624463658300155 -10.570847613786167 -8.876387285292983 0.0 0.0 -1.987846675914698e-16 74.68797609307312 -3.216150182378828 -36.91269303019228 118.49701165714671 3.840426452491043e-15 5.985880475912004e-15 0.0 0.0 0.0 0.0 3.130858514565649e-15 0.0 -0.07482452965966713 10.873812900767607 -5.025845601689064 -1.9568966978053755 19.87920808653225 4.827123178505265 0.0 0.0 -1.5902773407317584e-15
0.0 0.0 826.397924669964 25.888542129969146 -15.768528482737098 5.636351717884175 0.0 0.0 0.0 -0.032778993485733446 5.662222465625736 -1.4554454275042032 -0.8047097316821783 23.611132363056 -3.377852385771121 -5.517382872562698e-33 1.5902773407317584e-15 3.975693351829396e-16 0.0 0.0 0.0 -0.061339610037887925 9.118176442750832 0.2563361985573206 0.3587964163370028 -3.981897979046628e-16 -1.9753887007852275e-16 0.0 0.0 0.0 -90.64565304116951 16.34311988119985 45.180270479203415 -105.01488802769713 -2.5235552151362126e-15 1.9358711625359565e-15 0.0 0.0 -3.975693351829396e-16 0.0 0.0 0.0 -7.620331403441 -10.640593725773684 -8.748495646897831 0.0 0.0 0.0 74.43273035716106 -3.5186914326066563 -36.83560958345203 118.33263364434043 -7.092208197171544e-15 -5.293612158727002e-16 0.0 0.0 0.0 0.0 0.0 0.0 -0.07810057299412274 10.821811089459812 -5.006675054650132 -1.9669476955576122 19.973004608604935 4.813852055096814 0.0 0.0 7.951386703658792e-16
0.0 0.0 826.397924669964 25.872765736120282 -15.690513456618612 5.571828304257376 2.1724695060715624e-32 3.1308585145656493e-15 -7.951386703658792e-16 -0.03707895801457442 5.50130336760589 -1.3620288845153887 -0.7923961617796134 23.71823669121638 -3.370441963325522 0.0 0.0 0.0 2.1724695060715624e-32 3.1308585145656493e-15 -7.951386703658792e-16 -0.07040778797023758 9.129551945129757 0.24554103901354382 0.3195610628064694 5.952429851865627e-16 -3.9923083734733513e-16 0.0 0.0 0.0 -90.28276744121969 16.001693554282742 45.01063021431156 -104.41377569194016 5.642832847714006e-16 -4.4624478190883736e-15 -1.5902773407317584e-15 6.3611093629270335e-15 7.951386703658792e-16 0.0 0.0 0.0 -7.585573467330646 -10.69414604648732 -8.568941627481463 0.0 0.0 0.0 74.1397452738325 -3.78787688800876 -36.730689455732474 118.24663182882702 5.459573599772556e-15 3.2644706210631603e-15 0.0 0.0 0.0 2.1724695060715624e-32 3.1308585145656493e-15 -7.951386703658792e-16 -0.08746910951728867 10.65391107683711 -4.844124420674299 -1.9494440620087816 20.17607608734947 4.6785663361844225 6.896728590703373e-34 -1.9878466759146977e-16 3.9756933518293955e-16
0.0 0.0 826.397924669964 25.82413404959923 -15.571979079816117 5.516518931770601 0.0 0.0 0.0 -0.0383655659315552 5.262687634454474 -1.3397185417028763 -0.8035455486497307 23.878513999580033 -3.2458592144414267 0.0 9.93923337957349e-17 0.0 0.0 0.0 0.0 -0.07571773339268004 9.113517150887027 0.19117599232287186 0.2946594013942049 4.964488739971089e-16 -2.000618904502391e-16 0.0 0.0 -1.987846675914698e-16 -89.62146029332428 15.373893005937338 44.833046813494995 -103.68981880462111 -6.4308457141862765e-15 -3.0370814623960062e-15 0.0 0.0 0.0 0.0 0.0 -1.987846675914698e-16 -7.632743331030796 -10.906477282884834 -8.492552586360675 0.0 0.0 -1.987846675914698e-16 73.79770416413831 -4.203706513588718 -36.71896168909288 118.03970193183044 8.180504560795013e-15 4.911486319519522e-15 0.0 0.0 -7.951386703658792e-16 0.0 0.0 0.0 -0.09148730359326941 10.378252706131725 -4.792117810718278 -1.9751782714511956 20.484672141645103 4.709086086407341 0.0 0.0 -1.987846675914698e-15
